<svg xmlns="http://www.w3.org/2000/svg" width="22" height="22" viewBox="0 0 18 23" fill="none">
  <path fill-rule="evenodd" clip-rule="evenodd" d="M17.2286 9.05235C17.6554 9.05235 18 9.39795 18 9.82378C18 14.5472 14.3747 18.4356 9.77174 18.8299L9.77143 21.3429C9.77143 21.7687 9.42583 22.1143 9 22.1143C8.57417 22.1143 8.22857 21.7687 8.22857 21.3429L8.22928 18.83C3.62585 18.4362 0 14.5475 0 9.82378C0 9.39795 0.3456 9.05235 0.771429 9.05235C1.19829 9.05235 1.54286 9.39795 1.54286 9.82378C1.54286 13.9566 4.88777 17.32 9 17.32C13.1122 17.32 16.4571 13.9566 16.4571 9.82378C16.4571 9.39795 16.8027 9.05235 17.2286 9.05235ZM9 0C11.7288 0 13.9495 2.22891 13.9495 4.96903V9.79097C13.9495 12.5301 11.7288 14.759 9 14.759C6.2712 14.759 4.05051 12.5301 4.05051 9.79097V4.96903C4.05051 2.22891 6.2712 0 9 0ZM9 1.54286C7.12183 1.54286 5.59337 3.07954 5.59337 4.96903V9.79097C5.59337 11.6784 7.12183 13.2161 9 13.2161C10.8782 13.2161 12.4066 11.6784 12.4066 9.79097V4.96903C12.4066 3.07954 10.8782 1.54286 9 1.54286Z" fill="#4A7337"/>
</svg>