<svg xmlns="http://www.w3.org/2000/svg" width="22" height="22" viewBox="0 0 22 21" fill="none">
  <path fill-rule="evenodd" clip-rule="evenodd" d="M15.0517 0C16.744 0 18.2037 0.56515 19.2719 1.63546C20.3885 2.75313 21.0011 4.37912 20.999 6.21454L21.0005 13.5777C21.0023 13.606 21.0027 13.6344 21.0015 13.6628L20.999 14.7865C20.999 18.5026 18.6068 21 15.0465 21H5.94723C2.39005 21 0 18.5026 0 14.7865V6.21349C0 2.49739 2.39005 0 5.94723 0H15.0517ZM15.3428 11.4001C14.724 11.4001 13.9978 12.4241 13.3548 13.3282C12.4729 14.57 11.5604 15.855 10.186 15.855C9.25667 15.855 8.40526 15.4972 7.65489 15.1804C6.46144 14.6774 5.9205 14.5164 5.39113 14.9521C4.33144 15.8253 3.28437 17.4154 2.80325 18.1979C3.56263 18.9808 4.64134 19.4214 5.94723 19.4214H15.0465C17.7038 19.4214 19.4203 17.6028 19.4203 14.7865L19.4203 13.9456L19.396 13.92C18.4747 12.9708 16.8838 11.4001 15.3428 11.4001ZM15.0517 1.57863H5.94723C3.29408 1.57863 1.57863 3.39827 1.57863 6.21349V14.7865C1.57863 15.4901 1.68571 16.1315 1.88775 16.6978C2.49677 15.7782 3.41657 14.5333 4.38817 13.7334C5.7058 12.6494 7.12447 13.245 8.26739 13.726C8.93989 14.0091 9.57555 14.2764 10.186 14.2764C10.7458 14.2764 11.4478 13.2871 12.0687 12.4147C12.9307 11.1981 13.9094 9.8215 15.3428 9.8215C16.9159 9.8215 18.3407 10.7882 19.4214 11.7476L19.4203 6.21349C19.4224 4.77904 18.9846 3.58139 18.1553 2.75103C17.3891 1.98381 16.3167 1.57863 15.0517 1.57863ZM7.21645 4.40912C8.72246 4.41017 9.94748 5.63519 9.94853 7.14015C9.94853 8.64616 8.72351 9.87223 7.21645 9.87223C5.70938 9.87223 4.48436 8.64721 4.48436 7.1412C4.48436 5.63413 5.70938 4.40912 7.21645 4.40912ZM7.21539 5.98775C6.57973 5.98775 6.06299 6.50449 6.06299 7.1412C6.06299 7.77686 6.57973 8.2936 7.21645 8.2936C7.85211 8.2936 8.3699 7.77686 8.3699 7.14225C8.36885 6.50554 7.85106 5.9888 7.21539 5.98775Z" fill="#4A7337"/>
</svg>