<svg width="63" height="63" viewBox="0 0 63 63" fill="none" xmlns="http://www.w3.org/2000/svg">
<circle cx="31.5" cy="31.5" r="31.5" fill="#4CAF50"/>
<path d="M45.9992 34.783V36.7199C45.9992 37.0413 45.9852 37.3656 45.9571 37.687C45.5643 42.1097 42.4922 44.9997 38.0593 44.9997H25.9391C23.6946 44.9997 21.8008 44.2712 20.4401 42.9504C19.907 42.4606 19.4581 41.8851 19.1074 41.2254C19.5703 40.6626 20.0894 40.0464 20.5944 39.4288C21.4501 38.4042 22.2778 37.3922 22.7968 36.7339C23.5683 35.7795 25.6024 33.2671 28.4221 34.4461C28.9972 34.6847 29.5022 35.0216 29.9651 35.3163C31.1014 36.0743 31.5784 36.2988 32.378 35.8637C33.2617 35.3865 33.8369 34.4461 34.4401 33.4636C34.7627 32.9429 35.0854 32.439 35.4361 31.9758C36.9651 29.9827 39.3218 29.4493 41.2858 30.6283C42.2677 31.2179 43.1094 31.9618 43.895 32.7183C44.0633 32.8867 44.2317 33.0425 44.386 33.1969C44.5964 33.4074 45.2978 34.1092 45.9992 34.783Z" fill="#F9F7F3"/>
<path opacity="0.4" d="M38.0741 17H25.9399C21.1844 17 18 20.3265 18 25.2798V36.7204C18 38.4454 18.3928 39.9767 19.1082 41.2259C19.5711 40.6631 20.0902 40.0469 20.5952 39.4279C21.4509 38.4047 22.2786 37.3927 22.7976 36.7344C23.5691 35.78 25.6032 33.2676 28.4228 34.4466C28.998 34.6852 29.503 35.022 29.9659 35.3168C31.1022 36.0747 31.5792 36.2993 32.3788 35.8628C33.2625 35.387 33.8377 34.4466 34.4409 33.4627C34.7635 32.9433 35.0862 32.4394 35.4369 31.9763C36.9659 29.9832 39.3226 29.4498 41.2866 30.6288C42.2685 31.2183 43.1102 31.9622 43.8958 32.7188C44.0641 32.8872 44.2325 33.043 44.3868 33.1974C44.5972 33.4065 45.2986 34.1083 46 34.7834V25.2798C46 20.3265 42.8156 17 38.0741 17Z" fill="#F9F7F3"/>
<path d="M31.2356 26.5156C31.2356 28.4876 29.5929 30.1298 27.622 30.1298C25.6525 30.1298 24.0098 28.4876 24.0098 26.5156C24.0098 24.545 25.6525 22.9014 27.622 22.9014C29.5929 22.9014 31.2356 24.545 31.2356 26.5156Z" fill="#F9F7F3"/>
</svg>
