<svg width="63" height="63" viewBox="0 0 63 63" fill="none" xmlns="http://www.w3.org/2000/svg">
<circle cx="31.5" cy="31.5" r="31.5" fill="#4CAF50"/>
<path d="M41 36.2075C41 30.8463 35.5782 29.3538 31.4229 27.3438C28.8984 25.995 29.2178 22.7713 32.8339 22.5538C34.8399 22.4288 36.903 23.0412 38.7669 23.715L39.6461 19.5963C37.4434 18.9075 35.4726 18.5925 33.7143 18.545V16H31.2857V18.6675C26.5621 19.3363 24.0389 22.3863 24.0389 25.7925C24.0389 31.8875 30.9518 32.8175 33.214 33.9013C36.2983 35.3213 35.7276 38.2762 32.9359 38.9275C30.5159 39.4912 27.4255 38.5063 25.1038 37.5788L24 41.6888C26.1699 42.8425 28.7734 43.46 31.2857 43.505V46H33.7143V43.3688C37.7372 42.7887 41.0061 40.5025 41 36.2075Z" fill="#F6FFF8"/>
</svg>
