<svg width="63" height="63" viewBox="0 0 63 63" fill="none" xmlns="http://www.w3.org/2000/svg">
<circle cx="31.5" cy="31.5" r="31.5" fill="#2EC4B6"/>
<path d="M40 36.2075C40 30.8463 34.5782 29.3538 30.4229 27.3438C27.8984 25.995 28.2178 22.7713 31.8339 22.5538C33.8399 22.4288 35.903 23.0412 37.7669 23.715L38.6461 19.5963C36.4434 18.9075 34.4726 18.5925 32.7143 18.545V16H30.2857V18.6675C25.5621 19.3363 23.0389 22.3863 23.0389 25.7925C23.0389 31.8875 29.9518 32.8175 32.214 33.9013C35.2983 35.3213 34.7276 38.2762 31.9359 38.9275C29.5159 39.4912 26.4255 38.5063 24.1038 37.5788L23 41.6888C25.1699 42.8425 27.7734 43.46 30.2857 43.505V46H32.7143V43.3688C36.7372 42.7887 40.0061 40.5025 40 36.2075Z" fill="#F6FFF8"/>
</svg>
