<svg width="63" height="63" viewBox="0 0 63 63" fill="none" xmlns="http://www.w3.org/2000/svg">
<circle cx="31.5" cy="31.5" r="31.5" fill="#5464B4"/>
<path d="M31.6565 35.504H32.1461C34.8395 35.504 37.1247 33.7789 37.929 31.3869C38.0456 31.0387 37.7784 30.6798 37.4082 30.6798H35.9001C35.42 30.6798 35.0321 30.2967 35.0321 29.8239C35.0321 29.3498 35.42 28.9654 35.9001 28.9654H37.3621C37.8462 28.9654 38.2382 28.5784 38.2382 28.1002C38.2382 27.6221 37.8462 27.2351 37.3621 27.2351H35.9001C35.42 27.2351 35.0321 26.8507 35.0321 26.3779C35.0321 25.9038 35.42 25.5194 35.9001 25.5194H37.3621C37.8462 25.5194 38.2382 25.1323 38.2382 24.6542C38.2382 24.1761 37.8462 23.789 37.3621 23.789H35.9001C35.42 23.789 35.0321 23.4046 35.0321 22.9305C35.0321 22.4577 35.42 22.0733 35.9001 22.0733H37.4855C37.8489 22.0733 38.1093 21.7305 38.0117 21.3836C37.2915 18.8536 34.9385 17 32.1461 17H31.6565C28.2918 17 25.5645 19.692 25.5645 23.0162V29.4878C25.5645 32.8106 28.2918 35.504 31.6565 35.504Z" fill="#F9F7F3"/>
<path opacity="0.4" d="M42.4438 27.9561C41.6952 27.9561 41.0876 28.5547 41.0876 29.2954C41.0876 34.2977 36.9661 38.3679 31.9007 38.3679C26.8339 38.3679 22.7124 34.2977 22.7124 29.2954C22.7124 28.5547 22.1048 27.9561 21.3562 27.9561C20.6076 27.9561 20 28.5547 20 29.2954C20 35.3223 24.6192 40.2978 30.5445 40.9662V43.6609C30.5445 44.4002 31.1507 45.0002 31.9007 45.0002C32.6493 45.0002 33.2569 44.4002 33.2569 43.6609V40.9662C39.1808 40.2978 43.8 35.3223 43.8 29.2954C43.8 28.5547 43.1924 27.9561 42.4438 27.9561Z" fill="#DCEAD7"/>
</svg>
