<svg width="63" height="63" viewBox="0 0 63 63" fill="none" xmlns="http://www.w3.org/2000/svg">
<circle cx="31.5" cy="31.5" r="31.5" fill="#5464B4"/>
<path d="M43.2727 34.75C40.11 34.75 37.5455 37.2687 37.5455 40.375C37.5455 43.4813 40.11 46 43.2727 46C46.4355 46 49 43.4813 49 40.375C49 37.2687 46.4355 34.75 43.2727 34.75ZM43.2727 37.25L46.4545 41H43.9091V43.5H42.6364V41H40.0909L43.2727 37.25ZM35.196 42.1175C34.0276 42.75 32.6556 43.1663 31.1818 43.3688V46H28.6364V43.505C26.0031 43.4587 23.2744 42.8425 21 41.6888L22.1569 37.5775C24.5904 38.505 27.8295 39.49 30.366 38.9263C33.292 38.275 33.8902 35.32 30.6575 33.9C28.2864 32.8162 21.0395 31.8863 21.0395 25.7913C21.0395 22.385 23.6842 19.335 28.6364 18.6662V16H31.1818V18.545C33.0235 18.5925 35.0904 18.9075 37.3991 19.5963L36.4764 23.715C34.5227 23.0412 32.3629 22.4288 30.2591 22.5538C26.4676 22.7713 26.1355 25.9937 28.7802 27.3438C32.4125 29.0212 36.9575 30.345 38.3689 33.8475C35.7916 35.7188 34.4769 38.8962 35.196 42.1175Z" fill="#F6FFF8"/>
</svg>
