<svg width="63" height="63" viewBox="0 0 63 63" fill="none" xmlns="http://www.w3.org/2000/svg">
<circle cx="31.5" cy="31.5" r="31.5" fill="#FC573B"/>
<path d="M40.2727 34.75C37.11 34.75 34.5455 37.2687 34.5455 40.375C34.5455 43.4813 37.11 46 40.2727 46C43.4355 46 46 43.4813 46 40.375C46 37.2687 43.4355 34.75 40.2727 34.75ZM40.2727 37.25L43.4545 41H40.9091V43.5H39.6364V41H37.0909L40.2727 37.25ZM32.196 42.1175C31.0276 42.75 29.6556 43.1663 28.1818 43.3688V46H25.6364V43.505C23.0031 43.4587 20.2744 42.8425 18 41.6888L19.1569 37.5775C21.5904 38.505 24.8295 39.49 27.366 38.9263C30.292 38.275 30.8902 35.32 27.6575 33.9C25.2864 32.8162 18.0395 31.8863 18.0395 25.7913C18.0395 22.385 20.6842 19.335 25.6364 18.6662V16H28.1818V18.545C30.0235 18.5925 32.0904 18.9075 34.3991 19.5963L33.4764 23.715C31.5227 23.0412 29.3629 22.4288 27.2591 22.5538C23.4676 22.7713 23.1355 25.9937 25.7802 27.3438C29.4125 29.0212 33.9575 30.345 35.3689 33.8475C32.7916 35.7188 31.4769 38.8962 32.196 42.1175Z" fill="#F6FFF8"/>
</svg>
