<svg width="63" height="63" viewBox="0 0 63 63" fill="none" xmlns="http://www.w3.org/2000/svg">
<circle cx="31.5" cy="31.5" r="31.5" fill="#FC573B"/>
<path d="M41.4773 34.75C38.4275 34.75 35.9545 37.2687 35.9545 40.375C35.9545 43.4813 38.4275 46 41.4773 46C44.527 46 47 43.4813 47 40.375C47 37.2687 44.527 34.75 41.4773 34.75ZM41.4773 43.5L38.4091 39.75H40.8636V37.25H42.0909V39.75H44.5455L41.4773 43.5ZM33.689 42.1175C32.5624 42.75 31.2394 43.1663 29.8182 43.3688V46H27.3636V43.505C24.8244 43.4587 22.1931 42.8425 20 41.6888L21.1156 37.5775C23.4621 38.505 26.5855 39.49 29.0315 38.9263C31.853 38.275 32.4298 35.32 29.3125 33.9C27.0261 32.8162 20.038 31.8863 20.038 25.7913C20.038 22.385 22.5883 19.335 27.3636 18.6662V16H29.8182V18.545C31.594 18.5925 33.5871 18.9075 35.8134 19.5963L34.9236 23.715C33.0398 23.0412 30.9571 22.4288 28.9284 22.5538C25.2724 22.7713 24.952 25.9937 27.5023 27.3438C31.005 29.0212 35.3875 30.345 36.7486 33.8475C34.2634 35.7188 32.9956 38.8962 33.689 42.1175Z" fill="#F6FFF8"/>
</svg>
